HIERARCHY
ROOT Root
{
  OFFSET 0.0 0.0 0.0
  CHANNELS 6 Xposition Yposition Zposition Zrotation Yrotation Xrotation
  JOINT Hips
  {
    OFFSET 0.0 100.0 0.0
    CHANNELS 6 Xposition Yposition Zposition Zrotation Yrotation Xrotation
    JOINT Spine1
    {
      OFFSET -0.013727 5.003763 -0.053727
      CHANNELS 3 Zrotation Yrotation Xrotation
      JOINT Spine2
      {
        OFFSET -0.0 7.125301 -0.029825
        CHANNELS 3 Zrotation Yrotation Xrotation
        JOINT Chest
        {
          OFFSET -1e-06 7.550063 -0.815971
          CHANNELS 3 Zrotation Yrotation Xrotation
          JOINT Neck1
          {
            OFFSET -0.181677 26.311295 -0.553348
            CHANNELS 3 Zrotation Yrotation Xrotation
            JOINT Neck2
            {
              OFFSET -3e-06 7.709397 2.302585
              CHANNELS 3 Zrotation Yrotation Xrotation
              JOINT Head
              {
                OFFSET -5e-06 6.128916 1.953709
                CHANNELS 3 Zrotation Yrotation Xrotation
                JOINT HeadEnd
                {
                  OFFSET 0.003598 16.065403 -1.835379
                  CHANNELS 3 Zrotation Yrotation Xrotation
                }
                JOINT Jaw
                {
                  OFFSET 0.002637 0.475592 3.094941
                  CHANNELS 3 Zrotation Yrotation Xrotation
                }
                JOINT LeftEye
                {
                  OFFSET 3.206381 5.380205 7.586883
                  CHANNELS 3 Zrotation Yrotation Xrotation
                }
                JOINT RightEye
                {
                  OFFSET -3.22244 5.361869 7.558234
                  CHANNELS 3 Zrotation Yrotation Xrotation
                }
              }
            }
          }
          JOINT LeftShoulder
          {
            OFFSET 1.621652 23.237164 5.113413
            CHANNELS 3 Zrotation Yrotation Xrotation
            JOINT LeftArm
            {
              OFFSET 14.919846 2e-06 -5.502326
              CHANNELS 3 Zrotation Yrotation Xrotation
              JOINT LeftForeArm
              {
                OFFSET 28.739307 0.0 -0.002588
                CHANNELS 3 Zrotation Yrotation Xrotation
                JOINT LeftHand
                {
                  OFFSET 27.093981 -1e-06 0.002609
                  CHANNELS 3 Zrotation Yrotation Xrotation
                  JOINT LeftHandThumb1
                  {
                    OFFSET 2.276482 -1.392045 3.191413
                    CHANNELS 3 Zrotation Yrotation Xrotation
                    JOINT LeftHandThumb2
                    {
                      OFFSET 4.012836 -1.828127 1.641654
                      CHANNELS 3 Zrotation Yrotation Xrotation
                      JOINT LeftHandThumb3
                      {
                        OFFSET 2.798515 0.0 -3e-06
                        CHANNELS 3 Zrotation Yrotation Xrotation
                        JOINT LeftHandThumbEnd
                        {
                          OFFSET 3.180793 -4e-06 4e-06
                          CHANNELS 3 Zrotation Yrotation Xrotation
                        }
                      }
                    }
                  }
                  JOINT LeftHandIndex1
                  {
                    OFFSET 3.247555 -0.531998 2.296169
                    CHANNELS 3 Zrotation Yrotation Xrotation
                    JOINT LeftHandIndex2
                    {
                      OFFSET 6.364578 0.01206 0.1786
                      CHANNELS 3 Zrotation Yrotation Xrotation
                      JOINT LeftHandIndex3
                      {
                        OFFSET 3.662364 0.0 0.0
                        CHANNELS 3 Zrotation Yrotation Xrotation
                        JOINT LeftHandIndex4
                        {
                          OFFSET 2.329242 4e-06 4e-06
                          CHANNELS 3 Zrotation Yrotation Xrotation
                          JOINT LeftHandIndexEnd
                          {
                            OFFSET 2.759615 -0.180537 -0.113024
                            CHANNELS 3 Zrotation Yrotation Xrotation
                          }
                        }
                      }
                    }
                  }
                  JOINT LeftHandMiddle1
                  {
                    OFFSET 3.163495 0.240981 1.000332
                    CHANNELS 3 Zrotation Yrotation Xrotation
                    JOINT LeftHandMiddle2
                    {
                      OFFSET 6.19078 -0.259278 -1.002548
                      CHANNELS 3 Zrotation Yrotation Xrotation
                      JOINT LeftHandMiddle3
                      {
                        OFFSET 4.35652 -4e-06 -1e-06
                        CHANNELS 3 Zrotation Yrotation Xrotation
                        JOINT LeftHandMiddle4
                        {
                          OFFSET 2.996877 -8e-06 0.0
                          CHANNELS 3 Zrotation Yrotation Xrotation
                          JOINT LeftHandMiddleEnd
                          {
                            OFFSET 2.304287 -0.294569 -0.031741
                            CHANNELS 3 Zrotation Yrotation Xrotation
                          }
                        }
                      }
                    }
                  }
                  JOINT LeftHandRing1
                  {
                    OFFSET 2.882643 -0.053652 -0.322543
                    CHANNELS 3 Zrotation Yrotation Xrotation
                    JOINT LeftHandRing2
                    {
                      OFFSET 5.854541 -0.486202 -1.373841
                      CHANNELS 3 Zrotation Yrotation Xrotation
                      JOINT LeftHandRing3
                      {
                        OFFSET 4.350578 0.0 3e-06
                        CHANNELS 3 Zrotation Yrotation Xrotation
                        JOINT LeftHandRing4
                        {
                          OFFSET 2.651321 7e-06 2e-06
                          CHANNELS 3 Zrotation Yrotation Xrotation
                          JOINT LeftHandRingEnd
                          {
                            OFFSET 1.936105 0.077687 -7.1e-05
                            CHANNELS 3 Zrotation Yrotation Xrotation
                          }
                        }
                      }
                    }
                  }
                  JOINT LeftHandPinky1
                  {
                    OFFSET 2.8655 -0.310005 -1.600378
                    CHANNELS 3 Zrotation Yrotation Xrotation
                    JOINT LeftHandPinky2
                    {
                      OFFSET 5.087849 -1.331141 -1.77123
                      CHANNELS 3 Zrotation Yrotation Xrotation
                      JOINT LeftHandPinky3
                      {
                        OFFSET 3.070974 4e-06 0.0
                        CHANNELS 3 Zrotation Yrotation Xrotation
                        JOINT LeftHandPinky4
                        {
                          OFFSET 1.549672 0.0 1e-06
                          CHANNELS 3 Zrotation Yrotation Xrotation
                          JOINT LeftHandPinkyEnd
                          {
                            OFFSET 1.944893 -0.157802 0.057219
                            CHANNELS 3 Zrotation Yrotation Xrotation
                          }
                        }
                      }
                    }
                  }
                }
              }
            }
          }
          JOINT RightShoulder
          {
            OFFSET -1.380118 23.180309 5.214158
            CHANNELS 3 Zrotation Yrotation Xrotation
            JOINT RightArm
            {
              OFFSET -15.037196 1.2e-05 -5.545604
              CHANNELS 3 Zrotation Yrotation Xrotation
              JOINT RightForeArm
              {
                OFFSET -28.736639 2e-06 -0.002597
                CHANNELS 3 Zrotation Yrotation Xrotation
                JOINT RightHand
                {
                  OFFSET -27.133619 -0.0 0.002613
                  CHANNELS 3 Zrotation Yrotation Xrotation
                  JOINT RightHandThumb1
                  {
                    OFFSET -2.274032 -1.383988 3.163127
                    CHANNELS 3 Zrotation Yrotation Xrotation
                    JOINT RightHandThumb2
                    {
                      OFFSET -4.011429 -1.827466 1.640914
                      CHANNELS 3 Zrotation Yrotation Xrotation
                      JOINT RightHandThumb3
                      {
                        OFFSET -2.794935 -4e-06 -3e-06
                        CHANNELS 3 Zrotation Yrotation Xrotation
                        JOINT RightHandThumbEnd
                        {
                          OFFSET -3.183852 4e-06 1e-06
                          CHANNELS 3 Zrotation Yrotation Xrotation
                        }
                      }
                    }
                  }
                  JOINT RightHandIndex1
                  {
                    OFFSET -3.253266 -0.520057 2.282866
                    CHANNELS 3 Zrotation Yrotation Xrotation
                    JOINT RightHandIndex2
                    {
                      OFFSET -6.341917 0.012471 0.178266
                      CHANNELS 3 Zrotation Yrotation Xrotation
                      JOINT RightHandIndex3
                      {
                        OFFSET -3.654871 -8e-06 -0.0
                        CHANNELS 3 Zrotation Yrotation Xrotation
                        JOINT RightHandIndex4
                        {
                          OFFSET -2.327586 0.0 1e-06
                          CHANNELS 3 Zrotation Yrotation Xrotation
                          JOINT RightHandIndexEnd
                          {
                            OFFSET -2.76179 -0.180656 -0.113078
                            CHANNELS 3 Zrotation Yrotation Xrotation
                          }
                        }
                      }
                    }
                  }
                  JOINT RightHandMiddle1
                  {
                    OFFSET -3.168106 0.246593 1.00103
                    CHANNELS 3 Zrotation Yrotation Xrotation
                    JOINT RightHandMiddle2
                    {
                      OFFSET -6.180828 -0.258836 -1.000895
                      CHANNELS 3 Zrotation Yrotation Xrotation
                      JOINT RightHandMiddle3
                      {
                        OFFSET -4.348901 0.0 -0.0
                        CHANNELS 3 Zrotation Yrotation Xrotation
                        JOINT RightHandMiddle4
                        {
                          OFFSET -3.00024 -4e-06 -2e-06
                          CHANNELS 3 Zrotation Yrotation Xrotation
                          JOINT RightHandMiddleEnd
                          {
                            OFFSET -2.30252 -0.29437 -0.031706
                            CHANNELS 3 Zrotation Yrotation Xrotation
                          }
                        }
                      }
                    }
                  }
                  JOINT RightHandRing1
                  {
                    OFFSET -2.88569 -0.067952 -0.308858
                    CHANNELS 3 Zrotation Yrotation Xrotation
                    JOINT RightHandRing2
                    {
                      OFFSET -5.854198 -0.48613 -1.373731
                      CHANNELS 3 Zrotation Yrotation Xrotation
                      JOINT RightHandRing3
                      {
                        OFFSET -4.33881 -4e-06 -0.0
                        CHANNELS 3 Zrotation Yrotation Xrotation
                        JOINT RightHandRing4
                        {
                          OFFSET -2.654903 -4e-06 4e-06
                          CHANNELS 3 Zrotation Yrotation Xrotation
                          JOINT RightHandRingEnd
                          {
                            OFFSET -1.933568 0.077527 -5.2e-05
                            CHANNELS 3 Zrotation Yrotation Xrotation
                          }
                        }
                      }
                    }
                  }
                  JOINT RightHandPinky1
                  {
                    OFFSET -2.866425 -0.342796 -1.584145
                    CHANNELS 3 Zrotation Yrotation Xrotation
                    JOINT RightHandPinky2
                    {
                      OFFSET -5.091371 -1.332055 -1.772385
                      CHANNELS 3 Zrotation Yrotation Xrotation
                      JOINT RightHandPinky3
                      {
                        OFFSET -3.062664 -4e-06 1e-06
                        CHANNELS 3 Zrotation Yrotation Xrotation
                        JOINT RightHandPinky4
                        {
                          OFFSET -1.546529 4e-06 -2e-06
                          CHANNELS 3 Zrotation Yrotation Xrotation
                          JOINT RightHandPinkyEnd
                          {
                            OFFSET -1.945119 -0.157718 0.057211
                            CHANNELS 3 Zrotation Yrotation Xrotation
                          }
                        }
                      }
                    }
                  }
                }
              }
            }
          }
        }
      }
    }
    JOINT LeftLeg
    {
      OFFSET 10.043214 -8.434526 2.595655
      CHANNELS 3 Zrotation Yrotation Xrotation
      JOINT LeftShin
      {
        OFFSET -1e-06 -43.221752 -0.802913
        CHANNELS 3 Zrotation Yrotation Xrotation
        JOINT LeftFoot
        {
          OFFSET 1e-06 -42.155094 -3.481523
          CHANNELS 3 Zrotation Yrotation Xrotation
          JOINT LeftToeBase
          {
            OFFSET 0.0 -5.059472 13.231529
            CHANNELS 3 Zrotation Yrotation Xrotation
            JOINT LeftToeEnd
            {
              OFFSET -0.009607 -1.647619 6.513017
              CHANNELS 3 Zrotation Yrotation Xrotation
            }
          }
        }
      }
    }
    JOINT RightLeg
    {
      OFFSET -10.047278 -8.29526 2.620317
      CHANNELS 3 Zrotation Yrotation Xrotation
      JOINT RightShin
      {
        OFFSET 1e-06 -43.362206 -0.805556
        CHANNELS 3 Zrotation Yrotation Xrotation
        JOINT RightFoot
        {
          OFFSET 2e-06 -42.117393 -3.478398
          CHANNELS 3 Zrotation Yrotation Xrotation
          JOINT RightToeBase
          {
            OFFSET -0.0 -5.079609 13.284196
            CHANNELS 3 Zrotation Yrotation Xrotation
            JOINT RightToeEnd
            {
              OFFSET 0.009532 -1.634378 6.460591
              CHANNELS 3 Zrotation Yrotation Xrotation
            }
          }
        }
      }
    }
  }
}
MOTION
Frames: 4
Frame Time: 0.03333333333333333
0.0 0.0 0.0 0.0 -0.0 0.0 3.10533 98.489227 0.168664 2.891572 6.280229 -3.744801 -1.138078 -0.214283 -1.47132 -0.838898 -0.949962 -5.717803 -2.015289 -3.252246 11.731612 8.54324 -3.425199 22.546839 -1.127529 -1.896729 -3.803247 1.325987 -3.215957 -9.243783 7.7e-05 -2.2e-05 6e-06 -0.003785 -0.002202 0.043742 0.632201 -3.734684 -10.627734 -0.634555 3.733669 -10.619276 -8.405326 -1.392816 15.761613 -69.271812 -6.699774 4.565801 0.194016 -25.423002 -0.295756 1.758714 0.181944 0.111875 -5.882109 9.861292 0.702591 -10.936874 -0.360574 7.156207 -1e-06 8.774831 -2e-06 -16.231565 17.931423 5.975448 -1.844033 2.498507 -2.507278 -10.163602 4.678949 4.621109 -20.97603 -1e-06 1e-06 -21.226297 2.451699 -3.594006 1e-06 -6e-06 -0.0 -1.362682 2.2408 -0.746324 -21.334921 0.584912 3.008322 -13.821218 -1e-06 1e-06 -23.887178 -0.249078 -0.839485 -60.341354 2.498721 -1.218099 -0.294025 1.679687 0.833255 -14.218212 0.093217 1.30058 -34.212059 -0.287561 0.967167 -20.033215 0.964537 1.212841 1e-06 -0.0 -1e-06 -3.440389 0.788234 0.501656 -15.928189 -3.16731 2.999707 -6.338827 -0.0 1e-06 -18.123447 3.648188 -4.905674 -4e-06 0.0 -1e-06 18.838675 -1.755231 17.240152 59.853004 6.290201 13.881516 -0.375431 23.609869 -0.085696 -9.378143 -8.62617 7.745065 2.243542 -5.255038 -3.180157 14.282894 -0.826596 6.952503 -1e-06 -12.690609 0.0 16.535048 -17.362614 2.442693 1.665668 -1.955922 -2.878299 4.727801 -4.170589 4.993923 11.020528 1e-06 -1e-06 12.109055 -3.735719 -2.866786 0.0 -1e-06 0.0 1.291986 -1.92855 -1.498089 14.800129 0.567467 3.865608 14.242573 -1.341738 -6.660657 19.631969 0.143925 -0.648244 50.153503 -0.288909 -6.297545 0.353029 -1.511151 -0.031941 20.222794 3.684308 2.316632 18.787273 2e-06 -2e-06 10.751627 -0.479869 1.397905 -0.0 -0.0 1e-06 3.273807 0.305947 -0.58011 21.486813 11.830376 2.266132 8.162928 1e-06 -3e-06 18.399082 -3.798988 -4.940576 3e-06 1e-06 -1e-06 2.981507 6.782568 5.418166 -0.074554 -0.266578 9.48287 -5.874082 3.510713 -8.853652 1.656633 -2.028767 1.14431 -0.0 -0.0 2e-06 -9.614097 -9.126403 2.319522 -0.061858 0.029455 17.219379 9.044745 -7.546786 -13.586044 -1.452484 0.863525 1.633626 -0.0 -0.0 -1e-06 
0.0 0.0 0.0 0.0 -0.0 0.0 3.091133 98.496185 0.191167 2.88025 6.267633 -3.716136 -1.140948 -0.21414 -1.486063 -0.847167 -0.93526 -5.733635 -2.022712 -3.236982 11.656629 8.613798 -3.431694 22.624949 -1.110847 -1.855211 -3.800451 1.310559 -3.13356 -9.245736 7.7e-05 -2.2e-05 6e-06 -0.000912 -0.013205 0.049655 0.634134 -3.746605 -10.630503 -0.630684 3.724082 -10.62466 -8.37478 -1.393602 15.623168 -69.0867 -7.041486 4.648313 0.244184 -25.807852 -0.325124 1.960392 0.06402 -0.281126 -5.882108 9.86129 0.702591 -10.936877 -0.360576 7.156204 1e-06 8.77483 -2e-06 -16.213942 17.928745 6.004997 -1.844033 2.498505 -2.507278 -10.163604 4.678946 4.621109 -20.976034 -6e-06 1e-06 -21.226295 2.451697 -3.594 -0.0 -6e-06 -0.0 -1.362682 2.240799 -0.746323 -21.334929 0.584907 3.008322 -13.82122 -4e-06 1e-06 -23.887184 -0.249083 -0.839483 -60.358124 2.50536 -1.20658 -0.294025 1.679688 0.833256 -14.218215 0.093213 1.300579 -34.212067 -0.287569 0.96717 -20.033226 0.964535 1.212844 1e-06 -0.0 0.0 -3.44039 0.788234 0.501656 -15.928194 -3.167313 2.999707 -6.338829 -2e-06 1e-06 -18.123457 3.648183 -4.905674 -4e-06 0.0 -1e-06 18.762991 -1.612349 17.098391 59.730217 7.050306 13.216793 -0.400556 24.779364 -0.107049 -10.35428 -8.453558 8.636385 2.243542 -5.25504 -3.180159 14.282904 -0.826594 6.952507 -4e-06 -12.690613 0.0 16.572699 -17.318359 2.412077 1.665667 -1.955922 -2.878301 4.727802 -4.17059 4.993926 11.020536 4e-06 -1e-06 12.109062 -3.735717 -2.866786 0.0 0.0 0.0 1.291986 -1.92855 -1.49809 14.800144 0.56747 3.86561 14.242585 -1.341735 -6.660661 19.631987 0.143927 -0.648244 50.100452 -0.296677 -6.270716 0.353029 -1.511151 -0.031941 20.222815 3.684315 2.316631 18.787292 8e-06 0.0 10.751639 -0.479866 1.397908 -1e-06 -0.0 -0.0 3.27381 0.305948 -0.580111 21.486835 11.830386 2.266135 8.162935 2e-06 -2e-06 18.399099 -3.798985 -4.940579 3e-06 0.0 -1e-06 2.997007 6.766785 5.440866 -0.072751 -0.26779 9.398966 -5.887277 3.538173 -8.794879 1.658768 -2.020298 1.125376 -0.0 -0.0 2e-06 -9.614093 -9.232533 2.33056 -0.058878 0.030607 17.16053 9.067106 -7.453799 -13.508992 -1.453085 0.873722 1.638076 -0.0 -0.0 -1e-06 
0.0 0.0 0.0 0.0 -0.0 0.0 3.073806 98.501144 0.206326 2.861119 6.223209 -3.698914 -1.131606 -0.220657 -1.507166 -0.855397 -0.915044 -5.752518 -2.028797 -3.225213 11.588378 8.647723 -3.432229 22.730415 -1.092601 -1.796754 -3.800693 1.310653 -3.051702 -9.200073 7.7e-05 -2.2e-05 6e-06 0.000569 -0.018602 0.053344 0.634454 -3.753609 -10.635451 -0.627992 3.720685 -10.631227 -8.351663 -1.388941 15.495594 -68.944435 -7.348637 4.56799 0.302686 -26.193392 -0.368383 2.179647 -0.058554 -0.716617 -5.882109 9.86129 0.702591 -10.936875 -0.360574 7.156205 -0.0 8.774829 -2e-06 -16.169209 17.91568 6.034392 -1.844033 2.498505 -2.507278 -10.163602 4.678947 4.621108 -20.976028 -2e-06 1e-06 -21.226292 2.451698 -3.594003 -0.0 -6e-06 0.0 -1.362682 2.240798 -0.746323 -21.334921 0.58491 3.008321 -13.821215 -2e-06 -0.0 -23.887178 -0.249078 -0.839487 -60.328194 2.496521 -1.186884 -0.294025 1.679687 0.833256 -14.218212 0.093216 1.30058 -34.212059 -0.287563 0.967166 -20.033218 0.964536 1.21284 0.0 -0.0 0.0 -3.440389 0.788234 0.501656 -15.928189 -3.16731 2.999706 -6.338827 0.0 1e-06 -18.123447 3.648185 -4.905674 -4e-06 0.0 -2e-06 18.668222 -1.462389 16.938042 59.632599 7.862667 12.405259 -0.423508 26.317402 -0.141084 -11.328303 -8.084176 9.484258 2.243542 -5.255037 -3.180159 14.282894 -0.826595 6.952503 -3e-06 -12.690606 0.0 16.556807 -17.274979 2.413302 1.665666 -1.955921 -2.878298 4.7278 -4.170588 4.993925 11.020528 3e-06 -0.0 12.109055 -3.735717 -2.866783 -0.0 0.0 0.0 1.291985 -1.928549 -1.498088 14.800129 0.567468 3.865607 14.242573 -1.341736 -6.660657 19.631969 0.143926 -0.648244 50.031525 -0.314328 -6.232033 0.353029 -1.511151 -0.03194 20.222794 3.684311 2.316631 18.787271 5e-06 1e-06 10.751627 -0.479869 1.397907 -1e-06 -0.0 0.0 3.273807 0.305947 -0.58011 21.486818 11.830377 2.266132 8.162928 1e-06 -1e-06 18.399084 -3.798984 -4.940575 4e-06 0.0 -0.0 3.023314 6.77009 5.462011 -0.071377 -0.280069 9.342547 -5.897746 3.6133 -8.766237 1.662374 -2.009584 1.116034 -0.0 -0.0 2e-06 -9.595605 -9.293307 2.3289 -0.059406 0.029532 17.120632 9.079166 -7.390329 -13.447177 -1.453364 0.890343 1.641993 -0.0 0.0 -1e-06 
0.0 0.0 0.0 0.0 -0.0 0.0 3.054303 98.498123 0.223258 2.836039 6.133882 -3.696666 -1.113064 -0.230743 -1.527043 -0.867227 -0.896114 -5.76827 -2.030009 -3.207917 11.526785 8.641051 -3.444461 22.852556 -1.061166 -1.731182 -3.812725 1.282651 -2.961988 -9.108994 7.7e-05 -2.2e-05 6e-06 0.000602 -0.015951 0.054956 0.631706 -3.752131 -10.644553 -0.625154 3.724463 -10.6408 -8.337729 -1.38584 15.354402 -68.854111 -7.595665 4.38022 0.355363 -26.530998 -0.430408 2.391503 -0.196604 -1.187253 -5.882105 9.861283 0.70259 -10.93687 -0.360575 7.156206 0.0 8.774823 -1e-06 -16.094557 17.894575 6.061388 -1.844032 2.498504 -2.507278 -10.163599 4.678944 4.621108 -20.976021 -4e-06 3e-06 -21.226282 2.451696 -3.594 -0.0 -6e-06 0.0 -1.362681 2.240798 -0.746323 -21.334911 0.58491 3.008323 -13.821213 -3e-06 1e-06 -23.887167 -0.249078 -0.839483 -60.248657 2.478349 -1.167804 -0.294025 1.679687 0.833256 -14.218205 0.093214 1.300581 -34.212048 -0.287563 0.967171 -20.033211 0.964537 1.212844 1e-06 -0.0 1e-06 -3.440387 0.788232 0.501655 -15.928185 -3.167308 2.999708 -6.338826 -1e-06 2e-06 -18.123444 3.648183 -4.905669 -3e-06 -0.0 -2e-06 18.571047 -1.308121 16.746105 59.534245 8.703327 11.57328 -0.412811 28.162716 -0.180678 -12.188358 -7.530127 10.174847 2.243541 -5.255037 -3.180159 14.282896 -0.826595 6.952506 -2e-06 -12.690603 2e-06 16.461258 -17.24822 2.459671 1.665666 -1.955922 -2.878299 4.7278 -4.170586 4.993924 11.020528 3e-06 -2e-06 12.109055 -3.735715 -2.866784 -0.0 0.0 -0.0 1.291985 -1.92855 -1.498091 14.800129 0.567468 3.865609 14.242574 -1.341736 -6.660658 19.631971 0.143925 -0.648244 49.926632 -0.340676 -6.188371 0.353028 -1.51115 -0.03194 20.222794 3.684308 2.316632 18.787273 4e-06 -0.0 10.75163 -0.479869 1.397907 -0.0 0.0 -0.0 3.273807 0.305947 -0.580111 21.486816 11.830373 2.266133 8.16293 0.0 -1e-06 18.399088 -3.798987 -4.940575 3e-06 0.0 -1e-06 3.053567 6.764895 5.474857 -0.071394 -0.293503 9.352292 -5.911826 3.745952 -8.811669 1.66543 -2.002017 1.127647 -0.0 -1e-06 2e-06 -9.56816 -9.316946 2.305575 -0.058993 0.027812 17.135303 9.100856 -7.309843 -13.416059 -1.45328 0.905646 1.64683 -0.0 -0.0 -1e-06 
